<svg width="20" height="21" viewBox="0 0 20 21" xmlns="http://www.w3.org/2000/svg">
<path d="M7.5 15.2985L14.5 10.7985L7.5 6.29852V15.2985ZM10 20.7985C8.61667 20.7985 7.31667 20.5359 6.1 20.0105C4.88333 19.4859 3.825 18.7735 2.925 17.8735C2.025 16.9735 1.31267 15.9152 0.788 14.6985C0.262667 13.4819 0 12.1819 0 10.7985C0 9.41519 0.262667 8.11519 0.788 6.89852C1.31267 5.68186 2.025 4.62352 2.925 3.72352C3.825 2.82352 4.88333 2.11086 6.1 1.58552C7.31667 1.06086 8.61667 0.798523 10 0.798523C11.3833 0.798523 12.6833 1.06086 13.9 1.58552C15.1167 2.11086 16.175 2.82352 17.075 3.72352C17.975 4.62352 18.6873 5.68186 19.212 6.89852C19.7373 8.11519 20 9.41519 20 10.7985C20 12.1819 19.7373 13.4819 19.212 14.6985C18.6873 15.9152 17.975 16.9735 17.075 17.8735C16.175 18.7735 15.1167 19.4859 13.9 20.0105C12.6833 20.5359 11.3833 20.7985 10 20.7985Z" />
</svg>
