<svg width="13" height="18" viewBox="0 0 13 18" fill="none" xmlns="http://www.w3.org/2000/svg">
<path d="M6.0725 11.1875C5.34333 11.1875 4.72354 10.9323 4.21313 10.4219C3.70271 9.91146 3.4475 9.29167 3.4475 8.5625V3.3125C3.4475 2.58333 3.70271 1.96354 4.21313 1.45313C4.72354 0.942708 5.34333 0.6875 6.0725 0.6875C6.80167 0.6875 7.42146 0.942708 7.93188 1.45313C8.44229 1.96354 8.6975 2.58333 8.6975 3.3125V8.5625C8.6975 9.29167 8.44229 9.91146 7.93188 10.4219C7.42146 10.9323 6.80167 11.1875 6.0725 11.1875ZM6.0725 17.3125C5.82458 17.3125 5.61692 17.2285 5.4495 17.0605C5.2815 16.8931 5.1975 16.6854 5.1975 16.4375V14.6C3.84125 14.425 2.68917 13.8635 1.74125 12.9156C0.793334 11.9677 0.217292 10.8302 0.013125 9.50313C-0.030625 9.25521 0.0350003 9.03646 0.21 8.84688C0.385 8.65729 0.618334 8.5625 0.91 8.5625C1.11417 8.5625 1.29646 8.63892 1.45688 8.79175C1.61729 8.94517 1.71938 9.13125 1.76313 9.35C1.95271 10.3708 2.44854 11.224 3.25063 11.9094C4.05271 12.5948 4.99333 12.9375 6.0725 12.9375C7.15167 12.9375 8.09229 12.5948 8.89438 11.9094C9.69646 11.224 10.1923 10.3708 10.3819 9.35C10.4256 9.13125 10.5315 8.94517 10.6995 8.79175C10.8669 8.63892 11.0527 8.5625 11.2569 8.5625C11.534 8.5625 11.76 8.65729 11.935 8.84688C12.11 9.03646 12.1756 9.25521 12.1319 9.50313C11.9277 10.8302 11.3517 11.9677 10.4038 12.9156C9.45584 13.8635 8.30375 14.425 6.9475 14.6V16.4375C6.9475 16.6854 6.86379 16.8931 6.69638 17.0605C6.52838 17.2285 6.32042 17.3125 6.0725 17.3125Z" fill="black"/>
</svg>
